<?xml version="1.0" standalone="no"?>
<!DOCTYPE svg PUBLIC "-//W3C//DTD SVG 20010904//EN"
 "http://www.w3.org/TR/2001/REC-SVG-20010904/DTD/svg10.dtd">
<svg version="1.0" xmlns="http://www.w3.org/2000/svg"
 width="494.000000pt" height="505.000000pt" viewBox="0 0 494.000000 505.000000"
 preserveAspectRatio="xMidYMid meet">

<g transform="translate(0.000000,505.000000) scale(0.100000,-0.100000)"
fill="#000000" stroke="none">
<path d="M2265 4360 c-44 -10 -123 -32 -176 -49 -74 -24 -98 -36 -102 -52 -3
-11 -3 -73 -1 -137 l5 -117 -88 -47 c-48 -26 -106 -59 -128 -72 l-40 -25 -114
70 -113 69 -32 -26 c-52 -43 -196 -185 -233 -231 -20 -24 -33 -49 -30 -57 3
-8 33 -58 66 -111 34 -53 61 -101 61 -107 0 -7 -18 -39 -39 -72 -22 -34 -52
-86 -69 -116 l-29 -55 -138 -5 -138 -5 -33 -98 c-18 -54 -43 -144 -54 -200
-25 -119 -36 -101 110 -179 52 -28 96 -52 98 -53 2 -2 4 -69 4 -150 l1 -147
-114 -62 -114 -63 3 -39 c5 -53 55 -245 82 -317 l22 -58 126 1 c159 2 152 2
152 -13 0 -7 29 -61 65 -119 36 -59 65 -111 65 -117 0 -6 -24 -48 -53 -93 -87
-137 -86 -127 -18 -205 72 -84 195 -201 226 -215 21 -9 37 -2 132 55 l107 66
51 -29 c27 -16 85 -49 128 -72 l79 -43 -3 -115 c-1 -63 -1 -125 0 -137 1 -19
15 -26 99 -52 120 -37 288 -75 305 -68 6 3 39 55 72 117 l60 112 90 -5 c50 -3
101 -1 115 3 l25 8 -28 1 c-16 1 -76 12 -135 25 -628 142 -1119 662 -1233
1303 -29 164 -30 383 -1 553 83 492 400 927 845 1160 166 87 342 146 496 166
85 11 36 25 -76 22 l-97 -3 -64 113 c-72 128 -62 123 -197 92z"/>
<path d="M3249 3849 c-38 -40 -73 -90 -97 -138 -34 -71 -37 -83 -40 -186 -3
-99 -1 -117 22 -178 32 -86 67 -136 154 -219 38 -37 81 -89 93 -115 l24 -48 5
-692 5 -691 30 -38 c59 -73 154 -95 233 -55 46 24 67 46 88 96 15 36 17 110
18 710 1 782 -9 713 121 837 128 122 175 224 175 379 0 149 -73 302 -183 381
-50 36 -57 18 -57 -164 0 -151 -1 -160 -22 -181 -31 -30 -201 -127 -224 -127
-25 0 -212 108 -229 133 -12 17 -15 56 -15 177 0 207 -7 216 -101 119z m396
-2144 c30 -30 31 -54 4 -89 -15 -19 -30 -26 -54 -26 -37 0 -75 37 -75 72 0 27
45 68 75 68 14 0 37 -11 50 -25z"/>
<path d="M2669 3652 c-172 -46 -261 -138 -459 -479 -129 -223 -149 -253 -192
-283 -63 -43 -121 -113 -156 -187 l-27 -58 0 -285 0 -285 30 -58 c56 -112 145
-189 254 -221 37 -11 95 -16 182 -16 l128 0 108 132 c154 188 131 179 462 176
l266 -3 3 -28 c7 -56 2 -57 -265 -57 -190 0 -250 -3 -271 -14 -15 -8 -50 -43
-79 -77 -28 -35 -63 -77 -77 -94 l-26 -30 362 -3 c200 -1 369 0 376 3 10 3 12
126 10 592 l-3 588 -520 3 c-285 1 -523 6 -528 11 -7 7 48 110 174 320 61 102
127 172 201 212 62 33 66 34 215 39 83 3 155 8 159 13 4 4 8 29 8 55 l1 47
-135 2 c-101 2 -151 -2 -201 -15z m-310 -876 c187 -112 128 -100 541 -106
l365 -5 0 -40 0 -40 -354 -3 c-290 -2 -364 0 -405 13 -28 8 -109 49 -181 92
-100 60 -131 83 -133 101 -10 71 33 68 167 -12z m-173 -141 c76 -37 200 -129
245 -182 59 -71 62 -131 7 -154 -43 -18 -198 -18 -263 0 -111 31 -210 94 -241
153 -22 43 -18 130 8 163 59 75 119 80 244 20z"/>
<path d="M1645 3170 c-100 -49 -100 -167 -1 -214 48 -22 234 -23 282 0 38 18
74 69 74 106 0 36 -40 90 -80 110 -52 27 -220 25 -275 -2z"/>
<path d="M1900 1697 c0 -121 10 -168 43 -204 20 -22 27 -23 179 -23 90 0 168
4 179 10 31 17 49 66 52 138 l2 67 -125 5 c-115 5 -131 8 -195 38 -38 18 -84
44 -102 58 l-33 25 0 -114z"/>
</g>
</svg>
